<svg width="333" height="195" viewBox="0 0 333 195" fill="none" xmlns="http://www.w3.org/2000/svg">
<rect width="333" height="195" rx="10" fill="#949292"/>
<path d="M110.722 108V90.5455H122.074V93.196H113.884V97.9347H121.486V100.585H113.884V105.349H122.142V108H110.722ZM125.3 90.5455H129.169L134.351 103.193H134.555L139.737 90.5455H143.607V108H140.572V96.0085H140.411L135.587 107.949H133.32L128.496 95.983H128.334V108H125.3V90.5455ZM153.003 108V90.5455H159.685C160.946 90.5455 161.994 90.7443 162.83 91.142C163.67 91.5341 164.298 92.071 164.713 92.7528C165.134 93.4347 165.344 94.2074 165.344 95.071C165.344 95.7812 165.207 96.3892 164.935 96.8949C164.662 97.3949 164.295 97.8011 163.835 98.1136C163.375 98.4261 162.861 98.6506 162.293 98.7869V98.9574C162.912 98.9915 163.506 99.1818 164.074 99.5284C164.648 99.8693 165.116 100.352 165.48 100.977C165.844 101.602 166.026 102.358 166.026 103.244C166.026 104.148 165.807 104.96 165.369 105.682C164.932 106.398 164.273 106.963 163.392 107.378C162.511 107.793 161.403 108 160.068 108H153.003ZM156.165 105.358H159.565C160.713 105.358 161.54 105.139 162.045 104.702C162.557 104.259 162.812 103.69 162.812 102.997C162.812 102.48 162.685 102.014 162.429 101.599C162.173 101.179 161.81 100.849 161.338 100.611C160.866 100.366 160.304 100.244 159.651 100.244H156.165V105.358ZM156.165 97.9688H159.293C159.838 97.9688 160.33 97.8693 160.767 97.6705C161.205 97.4659 161.548 97.179 161.798 96.8097C162.054 96.4347 162.182 95.9915 162.182 95.4801C162.182 94.804 161.943 94.2472 161.466 93.8097C160.994 93.3722 160.293 93.1534 159.361 93.1534H156.165V97.9688ZM168.776 108V90.5455H175.322C176.663 90.5455 177.788 90.7784 178.697 91.2443C179.612 91.7102 180.302 92.3636 180.768 93.2045C181.239 94.0398 181.475 95.0142 181.475 96.1278C181.475 97.2472 181.237 98.2187 180.759 99.0426C180.288 99.8608 179.592 100.494 178.671 100.943C177.751 101.386 176.62 101.608 175.279 101.608H170.617V98.983H174.853C175.637 98.983 176.279 98.875 176.779 98.6591C177.279 98.4375 177.648 98.1165 177.887 97.696C178.131 97.2699 178.254 96.7472 178.254 96.1278C178.254 95.5085 178.131 94.9801 177.887 94.5426C177.643 94.0994 177.271 93.7642 176.771 93.5369C176.271 93.304 175.626 93.1875 174.836 93.1875H171.938V108H168.776ZM177.793 100.091L182.114 108H178.586L174.342 100.091H177.793ZM184.386 108V90.5455H195.738V93.196H187.548V97.9347H195.15V100.585H187.548V105.349H195.806V108H184.386ZM201.299 90.5455L205.842 104.284H206.021L210.555 90.5455H214.032L207.879 108H203.975L197.83 90.5455H201.299ZM216.331 108V90.5455H227.683V93.196H219.493V97.9347H227.095V100.585H219.493V105.349H227.751V108H216.331Z" fill="#B4BEC9"/>
</svg>
