<svg width="143" height="58" viewBox="0 0 143 58" fill="none" xmlns="http://www.w3.org/2000/svg">
<path d="M0.113636 29.1818V25.2045C2.68939 25.2045 4.48485 24.6818 5.5 23.6364C6.5303 22.5758 7.04545 20.8561 7.04545 18.4773V12.6818C7.04545 10.1212 7.36364 8.02273 8 6.38636C8.65152 4.75 9.59848 3.47727 10.8409 2.56818C12.0833 1.65909 13.5985 1.0303 15.3864 0.681816C17.1742 0.318181 19.2045 0.136364 21.4773 0.136364V6.45454C19.6894 6.45454 18.3182 6.70454 17.3636 7.20454C16.4091 7.68939 15.75 8.43939 15.3864 9.45454C15.0379 10.4697 14.8636 11.7652 14.8636 13.3409V20.7955C14.8636 21.9621 14.6667 23.053 14.2727 24.0682C13.8788 25.0833 13.1591 25.9773 12.1136 26.75C11.0682 27.5076 9.57576 28.1061 7.63636 28.5455C5.71212 28.9697 3.20455 29.1818 0.113636 29.1818ZM21.4773 57.8864C19.2045 57.8864 17.1742 57.7045 15.3864 57.3409C13.5985 56.9924 12.0833 56.3636 10.8409 55.4545C9.59848 54.5455 8.65152 53.2727 8 51.6364C7.36364 50 7.04545 47.9015 7.04545 45.3409V39.5682C7.04545 37.1894 6.5303 35.4773 5.5 34.4318C4.48485 33.3712 2.68939 32.8409 0.113636 32.8409V28.8636C3.20455 28.8636 5.71212 29.0833 7.63636 29.5227C9.57576 29.947 11.0682 30.5455 12.1136 31.3182C13.1591 32.0758 13.8788 32.9621 14.2727 33.9773C14.6667 34.9924 14.8636 36.0758 14.8636 37.2273V44.6818C14.8636 46.2576 15.0379 47.553 15.3864 48.5682C15.75 49.5833 16.4091 50.3409 17.3636 50.8409C18.3182 51.3409 19.6894 51.5909 21.4773 51.5909V57.8864ZM0.113636 32.8409V25.2045H7.31818V32.8409H0.113636ZM32.483 48.5C31.1042 48.5 29.9223 48.0152 28.9375 47.0455C27.9527 46.0758 27.4678 44.8939 27.483 43.5C27.4678 42.1364 27.9527 40.9697 28.9375 40C29.9223 39.0303 31.1042 38.5455 32.483 38.5455C33.8163 38.5455 34.9754 39.0303 35.9602 40C36.9602 40.9697 37.4678 42.1364 37.483 43.5C37.4678 44.4242 37.2254 45.2652 36.7557 46.0227C36.3011 46.7803 35.6951 47.3864 34.9375 47.8409C34.1951 48.2803 33.3769 48.5 32.483 48.5ZM46.3409 48V1.45454H63.7955C67.3712 1.45454 70.3712 2.07576 72.7955 3.31818C75.2349 4.5606 77.0758 6.30303 78.3182 8.54545C79.5758 10.7727 80.2045 13.3712 80.2045 16.3409C80.2045 19.3258 79.5682 21.9167 78.2955 24.1136C77.0379 26.2955 75.1818 27.9848 72.7273 29.1818C70.2727 30.3636 67.2576 30.9545 63.6818 30.9545H51.25V23.9545H62.5455C64.6364 23.9545 66.3485 23.6667 67.6818 23.0909C69.0152 22.5 70 21.6439 70.6364 20.5227C71.2879 19.3864 71.6136 17.9924 71.6136 16.3409C71.6136 14.6894 71.2879 13.2803 70.6364 12.1136C69.9848 10.9318 68.9924 10.0379 67.6591 9.43182C66.3258 8.81061 64.6061 8.5 62.5 8.5H54.7727V48H46.3409ZM70.3864 26.9091L81.9091 48H72.5L61.1818 26.9091H70.3864ZM86.2443 18.9091H92.6932L101.33 39.9886H101.67L110.307 18.9091H116.756V48H111.699V28.0142H111.429L103.389 47.9148H99.6108L91.571 27.9716H91.3011V48H86.2443V18.9091ZM142.693 28.8636V32.8409C140.117 32.8409 138.314 33.3712 137.284 34.4318C136.269 35.4773 135.761 37.1894 135.761 39.5682V45.3409C135.761 47.9015 135.436 50 134.784 51.6364C134.148 53.2727 133.208 54.5455 131.966 55.4545C130.723 56.3636 129.208 56.9924 127.42 57.3409C125.633 57.7045 123.602 57.8864 121.33 57.8864V51.5909C123.117 51.5909 124.489 51.3409 125.443 50.8409C126.398 50.3409 127.049 49.5833 127.398 48.5682C127.761 47.553 127.943 46.2576 127.943 44.6818V37.2273C127.943 36.0758 128.14 34.9924 128.534 33.9773C128.928 32.9621 129.648 32.0758 130.693 31.3182C131.739 30.5455 133.223 29.947 135.148 29.5227C137.087 29.0833 139.602 28.8636 142.693 28.8636ZM121.33 0.136364C123.602 0.136364 125.633 0.318181 127.42 0.681816C129.208 1.0303 130.723 1.65909 131.966 2.56818C133.208 3.47727 134.148 4.75 134.784 6.38636C135.436 8.02273 135.761 10.1212 135.761 12.6818V18.4773C135.761 20.8561 136.269 22.5758 137.284 23.6364C138.314 24.6818 140.117 25.2045 142.693 25.2045V29.1818C139.602 29.1818 137.087 28.9697 135.148 28.5455C133.223 28.1061 131.739 27.5076 130.693 26.75C129.648 25.9773 128.928 25.0833 128.534 24.0682C128.14 23.053 127.943 21.9621 127.943 20.7955V13.3409C127.943 11.7652 127.761 10.4697 127.398 9.45454C127.049 8.43939 126.398 7.68939 125.443 7.20454C124.489 6.70454 123.117 6.45454 121.33 6.45454V0.136364ZM142.693 25.2045V32.8409H135.489V25.2045H142.693Z" fill="#159A9C"/>
</svg>
