<svg width="100" height="100" viewBox="0 0 100 100" fill="none" xmlns="http://www.w3.org/2000/svg">
<g clip-path="url(#clip0_4_236)">
<path d="M76.0375 55.875C72.7625 62.5125 68.325 69.125 63.7875 75.0625C59.4831 80.6601 54.8806 86.022 50 91.125C45.1193 86.0221 40.5168 80.6602 36.2125 75.0625C31.675 69.125 27.2375 62.5125 23.9625 55.875C20.65 49.1687 18.75 42.8875 18.75 37.5C18.75 29.212 22.0424 21.2634 27.9029 15.4029C33.7634 9.5424 41.712 6.25 50 6.25C58.288 6.25 66.2366 9.5424 72.0971 15.4029C77.9576 21.2634 81.25 29.212 81.25 37.5C81.25 42.8875 79.3438 49.1687 76.0375 55.875ZM50 100C50 100 87.5 64.4625 87.5 37.5C87.5 27.5544 83.5491 18.0161 76.5165 10.9835C69.4839 3.95088 59.9456 0 50 0C40.0544 0 30.5161 3.95088 23.4835 10.9835C16.4509 18.0161 12.5 27.5544 12.5 37.5C12.5 64.4625 50 100 50 100Z" fill="#159A9C"/>
<path d="M50 50C46.6848 50 43.5054 48.683 41.1612 46.3388C38.817 43.9946 37.5 40.8152 37.5 37.5C37.5 34.1848 38.817 31.0054 41.1612 28.6612C43.5054 26.317 46.6848 25 50 25C53.3152 25 56.4946 26.317 58.8388 28.6612C61.183 31.0054 62.5 34.1848 62.5 37.5C62.5 40.8152 61.183 43.9946 58.8388 46.3388C56.4946 48.683 53.3152 50 50 50ZM50 56.25C54.9728 56.25 59.7419 54.2746 63.2583 50.7583C66.7746 47.2419 68.75 42.4728 68.75 37.5C68.75 32.5272 66.7746 27.7581 63.2583 24.2417C59.7419 20.7254 54.9728 18.75 50 18.75C45.0272 18.75 40.2581 20.7254 36.7417 24.2417C33.2254 27.7581 31.25 32.5272 31.25 37.5C31.25 42.4728 33.2254 47.2419 36.7417 50.7583C40.2581 54.2746 45.0272 56.25 50 56.25V56.25Z" fill="#159A9C"/>
</g>
<defs>
<clipPath id="clip0_4_236">
<rect width="100" height="100" fill="white"/>
</clipPath>
</defs>
</svg>
