<svg width="435" height="63" viewBox="0 0 435 63" fill="none" xmlns="http://www.w3.org/2000/svg">
<path d="M0.113636 30.1818V26.2045C2.68939 26.2045 4.48485 25.6818 5.5 24.6364C6.5303 23.5758 7.04545 21.8561 7.04545 19.4773V13.6818C7.04545 11.1212 7.36364 9.02273 8 7.38636C8.65152 5.75 9.59848 4.47727 10.8409 3.56818C12.0833 2.65909 13.5985 2.0303 15.3864 1.68182C17.1742 1.31818 19.2045 1.13636 21.4773 1.13636V7.45454C19.6894 7.45454 18.3182 7.70454 17.3636 8.20454C16.4091 8.68939 15.75 9.43939 15.3864 10.4545C15.0379 11.4697 14.8636 12.7652 14.8636 14.3409V21.7955C14.8636 22.9621 14.6667 24.053 14.2727 25.0682C13.8788 26.0833 13.1591 26.9773 12.1136 27.75C11.0682 28.5076 9.57576 29.1061 7.63636 29.5455C5.71212 29.9697 3.20455 30.1818 0.113636 30.1818ZM21.4773 58.8864C19.2045 58.8864 17.1742 58.7045 15.3864 58.3409C13.5985 57.9924 12.0833 57.3636 10.8409 56.4545C9.59848 55.5455 8.65152 54.2727 8 52.6364C7.36364 51 7.04545 48.9015 7.04545 46.3409V40.5682C7.04545 38.1894 6.5303 36.4773 5.5 35.4318C4.48485 34.3712 2.68939 33.8409 0.113636 33.8409V29.8636C3.20455 29.8636 5.71212 30.0833 7.63636 30.5227C9.57576 30.947 11.0682 31.5455 12.1136 32.3182C13.1591 33.0758 13.8788 33.9621 14.2727 34.9773C14.6667 35.9924 14.8636 37.0758 14.8636 38.2273V45.6818C14.8636 47.2576 15.0379 48.553 15.3864 49.5682C15.75 50.5833 16.4091 51.3409 17.3636 51.8409C18.3182 52.3409 19.6894 52.5909 21.4773 52.5909V58.8864ZM0.113636 33.8409V26.2045H7.31818V33.8409H0.113636ZM32.483 49.5C31.1042 49.5 29.9223 49.0152 28.9375 48.0455C27.9527 47.0758 27.4678 45.8939 27.483 44.5C27.4678 43.1364 27.9527 41.9697 28.9375 41C29.9223 40.0303 31.1042 39.5455 32.483 39.5455C33.8163 39.5455 34.9754 40.0303 35.9602 41C36.9602 41.9697 37.4678 43.1364 37.483 44.5C37.4678 45.4242 37.2254 46.2652 36.7557 47.0227C36.3011 47.7803 35.6951 48.3864 34.9375 48.8409C34.1951 49.2803 33.3769 49.5 32.483 49.5ZM46.3409 49V2.45454H63.7955C67.3712 2.45454 70.3712 3.07576 72.7955 4.31818C75.2349 5.5606 77.0758 7.30303 78.3182 9.54545C79.5758 11.7727 80.2045 14.3712 80.2045 17.3409C80.2045 20.3258 79.5682 22.9167 78.2955 25.1136C77.0379 27.2955 75.1818 28.9848 72.7273 30.1818C70.2727 31.3636 67.2576 31.9545 63.6818 31.9545H51.25V24.9545H62.5455C64.6364 24.9545 66.3485 24.6667 67.6818 24.0909C69.0152 23.5 70 22.6439 70.6364 21.5227C71.2879 20.3864 71.6136 18.9924 71.6136 17.3409C71.6136 15.6894 71.2879 14.2803 70.6364 13.1136C69.9848 11.9318 68.9924 11.0379 67.6591 10.4318C66.3258 9.81061 64.6061 9.5 62.5 9.5H54.7727V49H46.3409ZM70.3864 27.9091L81.9091 49H72.5L61.1818 27.9091H70.3864ZM102.557 49.6818C99.0568 49.6818 96.0341 48.9545 93.4886 47.5C90.9583 46.0303 89.0114 43.9545 87.6477 41.2727C86.2841 38.5758 85.6023 35.4015 85.6023 31.75C85.6023 28.1591 86.2841 25.0076 87.6477 22.2955C89.0265 19.5682 90.9508 17.447 93.4205 15.9318C95.8902 14.4015 98.7917 13.6364 102.125 13.6364C104.277 13.6364 106.307 13.9848 108.216 14.6818C110.14 15.3636 111.837 16.4242 113.307 17.8636C114.792 19.303 115.958 21.1364 116.807 23.3636C117.655 25.5758 118.08 28.2121 118.08 31.2727V33.7955H89.4659V28.25H110.193C110.178 26.6742 109.837 25.2727 109.17 24.0455C108.504 22.803 107.572 21.8258 106.375 21.1136C105.193 20.4015 103.814 20.0455 102.239 20.0455C100.557 20.0455 99.0795 20.4545 97.8068 21.2727C96.5341 22.0758 95.5417 23.1364 94.8295 24.4545C94.1326 25.7576 93.7765 27.1894 93.7614 28.75V33.5909C93.7614 35.6212 94.1326 37.3636 94.875 38.8182C95.6174 40.2576 96.6553 41.3636 97.9886 42.1364C99.322 42.8939 100.883 43.2727 102.67 43.2727C103.867 43.2727 104.951 43.1061 105.92 42.7727C106.89 42.4242 107.731 41.9167 108.443 41.25C109.155 40.5833 109.693 39.7576 110.057 38.7727L117.739 39.6364C117.254 41.6667 116.33 43.4394 114.966 44.9545C113.617 46.4545 111.89 47.6212 109.784 48.4545C107.678 49.2727 105.269 49.6818 102.557 49.6818ZM133.267 28.5455V49H125.04V14.0909H132.903V20.0227H133.312C134.116 18.0682 135.396 16.5152 137.153 15.3636C138.926 14.2121 141.116 13.6364 143.722 13.6364C146.131 13.6364 148.229 14.1515 150.017 15.1818C151.82 16.2121 153.214 17.7045 154.199 19.6591C155.199 21.6136 155.691 23.9848 155.676 26.7727V49H147.449V28.0455C147.449 25.7121 146.843 23.8864 145.631 22.5682C144.434 21.25 142.775 20.5909 140.653 20.5909C139.214 20.5909 137.934 20.9091 136.812 21.5455C135.706 22.1667 134.835 23.0682 134.199 24.25C133.578 25.4318 133.267 26.8636 133.267 28.5455ZM176.994 49.6136C174.252 49.6136 171.797 48.9091 169.631 47.5C167.464 46.0909 165.752 44.0455 164.494 41.3636C163.237 38.6818 162.608 35.4242 162.608 31.5909C162.608 27.7121 163.244 24.4394 164.517 21.7727C165.805 19.0909 167.54 17.0682 169.722 15.7045C171.903 14.3258 174.335 13.6364 177.017 13.6364C179.063 13.6364 180.744 13.9848 182.062 14.6818C183.381 15.3636 184.426 16.1894 185.199 17.1591C185.972 18.1136 186.57 19.0152 186.994 19.8636H187.335V2.45454H195.585V49H187.494V43.5H186.994C186.57 44.3485 185.956 45.25 185.153 46.2045C184.35 47.1439 183.29 47.947 181.972 48.6136C180.653 49.2803 178.994 49.6136 176.994 49.6136ZM179.29 42.8636C181.032 42.8636 182.517 42.3939 183.744 41.4545C184.972 40.5 185.903 39.1742 186.54 37.4773C187.176 35.7803 187.494 33.803 187.494 31.5455C187.494 29.2879 187.176 27.3258 186.54 25.6591C185.919 23.9924 184.994 22.697 183.767 21.7727C182.555 20.8485 181.063 20.3864 179.29 20.3864C177.456 20.3864 175.926 20.8636 174.699 21.8182C173.472 22.7727 172.547 24.0909 171.926 25.7727C171.305 27.4545 170.994 29.3788 170.994 31.5455C170.994 33.7273 171.305 35.6742 171.926 37.3864C172.563 39.0833 173.494 40.4242 174.722 41.4091C175.964 42.3788 177.487 42.8636 179.29 42.8636ZM204.352 49V14.0909H212.33V19.9091H212.693C213.33 17.8939 214.42 16.3409 215.966 15.25C217.527 14.1439 219.307 13.5909 221.307 13.5909C221.761 13.5909 222.269 13.6136 222.83 13.6591C223.405 13.6894 223.883 13.7424 224.261 13.8182V21.3864C223.913 21.2652 223.36 21.1591 222.602 21.0682C221.86 20.9621 221.14 20.9091 220.443 20.9091C218.943 20.9091 217.595 21.2348 216.398 21.8864C215.216 22.5227 214.284 23.4091 213.602 24.5455C212.92 25.6818 212.58 26.9924 212.58 28.4773V49H204.352ZM235.903 62.0909C234.782 62.0909 233.744 62 232.79 61.8182C231.85 61.6515 231.1 61.4545 230.54 61.2273L232.449 54.8182C233.646 55.1667 234.714 55.3333 235.653 55.3182C236.593 55.303 237.419 55.0076 238.131 54.4318C238.858 53.8712 239.472 52.9318 239.972 51.6136L240.676 49.7273L228.017 14.0909H236.744L244.79 40.4545H245.153L253.222 14.0909H261.972L247.994 53.2273C247.343 55.0758 246.479 56.6591 245.403 57.9773C244.328 59.3106 243.009 60.3258 241.449 61.0227C239.903 61.7348 238.055 62.0909 235.903 62.0909ZM275.165 38.0455L275.142 28.1136H276.46L289.006 14.0909H298.619L283.188 31.2727H281.483L275.165 38.0455ZM267.665 49V2.45454H275.892V49H267.665ZM289.574 49L278.21 33.1136L283.756 27.3182L299.415 49H289.574ZM304.102 49V14.0909H312.33V49H304.102ZM308.239 9.13636C306.936 9.13636 305.814 8.70455 304.875 7.84091C303.936 6.96212 303.466 5.90909 303.466 4.68182C303.466 3.43939 303.936 2.38636 304.875 1.52272C305.814 0.643937 306.936 0.204544 308.239 0.204544C309.557 0.204544 310.678 0.643937 311.602 1.52272C312.542 2.38636 313.011 3.43939 313.011 4.68182C313.011 5.90909 312.542 6.96212 311.602 7.84091C310.678 8.70455 309.557 9.13636 308.239 9.13636ZM319.432 19.9091H325.881L334.517 40.9886H334.858L343.494 19.9091H349.943V49H344.886V29.0142H344.616L336.577 48.9148H332.798L324.759 28.9716H324.489V49H319.432V19.9091ZM365.114 49.4261C362.926 49.4261 361.037 48.9716 359.446 48.0625C357.865 47.1439 356.648 45.8466 355.795 44.1705C354.943 42.4848 354.517 40.5009 354.517 38.2188C354.517 35.9744 354.943 34.0047 355.795 32.3097C356.657 30.6051 357.86 29.2794 359.403 28.3324C360.947 27.3759 362.76 26.8977 364.844 26.8977C366.188 26.8977 367.457 27.1155 368.651 27.5511C369.853 27.9773 370.914 28.6402 371.832 29.5398C372.76 30.4394 373.49 31.5852 374.02 32.9773C374.55 34.3598 374.815 36.0076 374.815 37.9205V39.4972H356.932V36.0312H369.886C369.877 35.0464 369.664 34.1705 369.247 33.4034C368.83 32.6269 368.248 32.0161 367.5 31.571C366.761 31.1259 365.9 30.9034 364.915 30.9034C363.864 30.9034 362.94 31.1591 362.145 31.6705C361.349 32.1723 360.729 32.8352 360.284 33.6591C359.848 34.4735 359.626 35.3684 359.616 36.3438V39.3693C359.616 40.6383 359.848 41.7273 360.312 42.6364C360.777 43.536 361.425 44.2273 362.259 44.7102C363.092 45.1837 364.067 45.4205 365.185 45.4205C365.933 45.4205 366.61 45.3163 367.216 45.108C367.822 44.8902 368.348 44.5729 368.793 44.1562C369.238 43.7396 369.574 43.2235 369.801 42.608L374.602 43.1477C374.299 44.4167 373.722 45.5246 372.869 46.4716C372.027 47.4091 370.947 48.1383 369.631 48.6591C368.314 49.1705 366.809 49.4261 365.114 49.4261ZM384.308 19.9091V49H379.165V19.9091H384.308ZM399.112 49.4261C396.982 49.4261 395.135 48.9574 393.572 48.0199C392.01 47.0824 390.798 45.7708 389.936 44.0852C389.084 42.3996 388.658 40.4299 388.658 38.1761C388.658 35.9223 389.084 33.9479 389.936 32.2528C390.798 30.5578 392.01 29.2415 393.572 28.304C395.135 27.3665 396.982 26.8977 399.112 26.8977C401.243 26.8977 403.089 27.3665 404.652 28.304C406.214 29.2415 407.422 30.5578 408.274 32.2528C409.136 33.9479 409.567 35.9223 409.567 38.1761C409.567 40.4299 409.136 42.3996 408.274 44.0852C407.422 45.7708 406.214 47.0824 404.652 48.0199C403.089 48.9574 401.243 49.4261 399.112 49.4261ZM399.141 45.3068C400.296 45.3068 401.262 44.9896 402.038 44.3551C402.815 43.7112 403.393 42.8494 403.771 41.7699C404.16 40.6903 404.354 39.4877 404.354 38.1619C404.354 36.8267 404.16 35.6193 403.771 34.5398C403.393 33.4508 402.815 32.5843 402.038 31.9403C401.262 31.2964 400.296 30.9744 399.141 30.9744C397.957 30.9744 396.972 31.2964 396.186 31.9403C395.41 32.5843 394.827 33.4508 394.439 34.5398C394.06 35.6193 393.871 36.8267 393.871 38.1619C393.871 39.4877 394.06 40.6903 394.439 41.7699C394.827 42.8494 395.41 43.7112 396.186 44.3551C396.972 44.9896 397.957 45.3068 399.141 45.3068ZM434.357 29.8636V33.8409C431.781 33.8409 429.978 34.3712 428.948 35.4318C427.933 36.4773 427.425 38.1894 427.425 40.5682V46.3409C427.425 48.9015 427.1 51 426.448 52.6364C425.812 54.2727 424.872 55.5455 423.63 56.4545C422.388 57.3636 420.872 57.9924 419.085 58.3409C417.297 58.7045 415.266 58.8864 412.994 58.8864V52.5909C414.781 52.5909 416.153 52.3409 417.107 51.8409C418.062 51.3409 418.713 50.5833 419.062 49.5682C419.425 48.553 419.607 47.2576 419.607 45.6818V38.2273C419.607 37.0758 419.804 35.9924 420.198 34.9773C420.592 33.9621 421.312 33.0758 422.357 32.3182C423.403 31.5455 424.888 30.947 426.812 30.5227C428.751 30.0833 431.266 29.8636 434.357 29.8636ZM412.994 1.13636C415.266 1.13636 417.297 1.31818 419.085 1.68182C420.872 2.0303 422.388 2.65909 423.63 3.56818C424.872 4.47727 425.812 5.75 426.448 7.38636C427.1 9.02273 427.425 11.1212 427.425 13.6818V19.4773C427.425 21.8561 427.933 23.5758 428.948 24.6364C429.978 25.6818 431.781 26.2045 434.357 26.2045V30.1818C431.266 30.1818 428.751 29.9697 426.812 29.5455C424.888 29.1061 423.403 28.5076 422.357 27.75C421.312 26.9773 420.592 26.0833 420.198 25.0682C419.804 24.053 419.607 22.9621 419.607 21.7955V14.3409C419.607 12.7652 419.425 11.4697 419.062 10.4545C418.713 9.43939 418.062 8.68939 417.107 8.20454C416.153 7.70454 414.781 7.45454 412.994 7.45454V1.13636ZM434.357 26.2045V33.8409H427.153V26.2045H434.357Z" fill="#159A9C"/>
</svg>
